<svg xmlns="http://www.w3.org/2000/svg" version="1.1" xmlns:xlink="http://www.w3.org/1999/xlink" xmlns:svgjs="http://svgjs.dev/svgjs" viewBox="0 0 1422 800"><defs><linearGradient x1="50%" y1="0%" x2="50%" y2="100%" id="ssscribble-grad"><stop stop-color="hsl(305, 77%, 50%)" stop-opacity="1" offset="0%"></stop><stop stop-color="hsl(305, 77%, 80%)" stop-opacity="1" offset="100%"></stop></linearGradient></defs><g fill="none" stroke-width="1" stroke="url(#ssscribble-grad)" stroke-linecap="round" stroke-dasharray="14"><path d="M1163.73 340.6C1189.18 370.74 1201.39 400.81 1197.99 431.09 1181.95 462.17 1153.54 494.89 1118.12 530.01 1081.81 567.15 1047.62 607.37 1018.6 649.68 997.36 691.42 982.04 731.04 970.87 764.16 961.72 794.26 936.61 779.4 913.99 756.25 896.35 754.05 874.6 766.39 849.49 793.86 823.93 832.37 795.81 869.51 765.68 892.36 735.54 894.74 704.82 873.37 673.55 836.49 641.83 796.71 608.76 763.04 574.18 742.25 538.52 738.08 501 744.81 462.42 755.67 424.13 767.9 386.96 771.87 353.56 764.85 325.23 748.83 304.83 722.28 294.69 688.73 292.34 650.63 299.5 610.52 313.72 571.03 327.06 531.48 338.31 494.03 342.73 459.18 334.49 424.74 316.18 392.34 290.73 362.2 261.4 332.07 238.79 305.62 228.16 283.24 229.29 261.26 245.46 243.89 273.43 231.21 307.78 218.48 345.53 208.97 382.17 200.62 414.07 187.73 440.72 171.02 462.17 147.55 477.41 115.08 489.99 75.39 501.98 31.77 511.66 -10.45 523.64 -44.21 538.92 -62.13 554.27 -63.43 573.6 -46.91 596.76 -18.76 620.16 6.48 647.05 21.74 677.19 19.37 707.32 -3.46 739.27 -34.49 772.7 -61.38 806.37 -77.23 841.86 -72.41 878.73 -48.13 915.68 -11.11 953.32 32.34 990.08 73.93 1024.54 107.61 1055.23 131.59 1079.48 146.86 1102.07 155.06 1095.46 170.41 1077.83 190.2 1071.94 207.3 1072.93 229.4 1083.43 255.15 1105.68 281.7 1134.4 310.47 1163.73 340.6Q1163.73 340.6 1163.73 340.6" opacity="0.60"></path><path d="M1115.24 374.58C1138.25 401.36 1150.85 430.56 1151.11 461.81 1141.22 493.23 1120.18 526.88 1091.4 562.05 1059.35 596.77 1026.07 631.65 994.59 664.48 967.43 693.48 944.46 716.73 925.46 731.47 905.34 737.99 872.59 710.69 853.16 700.43 839.57 708.09 822.68 727.44 802.42 756.86 782.07 792.31 758.45 824.36 731.66 843.87 704.88 847.09 676.2 830.89 646.03 800.57 615.78 764.94 583.94 730.31 551.11 703.03 518.5 687.74 485.62 682.77 453.84 685.03 424.15 693.7 397.77 701.2 376.74 703.84 360.64 702.73 351.85 693.4 351.12 676.68 354.71 655.15 363.97 628.53 376.39 599.15 385.53 567.85 391.33 536.08 390.87 505.34 380.28 474.29 362.25 445.01 339.24 418.22 313.14 391.44 292.15 368.42 280.14 348.95 276.71 329.17 285.54 312.21 305.04 297.1 331.46 280.05 363.52 262.57 397.66 242.82 430.85 218.25 461.88 189.13 489.61 155.12 512.98 117.38 533.31 78.12 551.59 41.56 566.87 11.41 582.13 -7.64 598.46 -11.98 613.79 -4.34 631.49 15.04 652 40.33 672.38 60.31 695.93 71.09 722.71 67.87 749.5 48.37 778.26 21.75 808.39 -3.36 838.39 -22.44 869.43 -26.55 900.51 -14.58 930.6 9.95 959.46 44.67 985.46 83.52 1008.46 121.44 1026.59 155.14 1038.32 182.76 1046.07 210.73 1030.86 243.68 1020.05 260 1020.19 271.25 1026.61 286.33 1040.37 305.42 1062.72 324.69 1089.14 347.79 1115.24 374.58Q1115.24 374.58 1115.24 374.58" opacity="0.84"></path><path d="M1066.63 431.36C1087.11 454.8 1099.61 480.12 1102.66 506.63 1098.05 532.82 1084.03 559.51 1062.61 585.41 1036.93 609.68 1007.94 631.42 978.11 648.88 949.54 662.69 922.78 670.57 898.54 671.8 877.61 669.93 858.89 663.38 841.73 654.46 826.92 649.15 812.21 647.6 796.79 652.85 782.29 668.24 766.04 691.66 747.62 720.64 729.38 751.99 708.58 778.91 685.15 795.25 661.71 799.04 636.74 787.44 610.78 763.71 585 733.73 558.61 701.35 532.49 671.66 507.3 648.92 483.4 633.6 462.09 625.22 423.54 628.72 424.48 612.69 436.96 589.82 441.2 571.43 441.89 550.35 437.46 527.78 425.36 504.7 408.11 481.1 387.63 457.66 364.79 434.23 345.78 412.06 333.34 390.94 326.74 369.31 329.59 347.75 341.28 325.52 359.23 301.51 383.48 275.45 411.62 246.84 441.32 215.96 471.56 182.79 500.83 148.71 528.2 115.71 553.64 85.77 577.12 62.19 598.37 46.16 618.53 40.45 638.22 46.01 656.74 58.52 675.87 77.56 696.12 98.5 716.06 113.18 737.7 120.04 761.14 116.25 784.58 99.92 808.71 77.75 832.96 55.44 856.92 35.51 880.42 25.42 902.52 27.21 923.45 39.13 941.89 61.71 956.76 91.42 969.4 124.75 977.61 159.09 980.95 191.68 982.41 221.16 979.95 246.93 974.66 269.24 970.93 287.91 967.69 304.76 966.92 321.11 972.41 335.83 982.9 351.78 998.54 369.79 1020.03 387.47 1043.79 407.92 1066.63 431.36Q1066.63 431.36 1066.63 431.36" opacity="0.12"></path><path d="M1018.24 459.97C1036.05 480.06 1047.88 499.69 1052.74 518.39 1052.19 536.71 1044.24 553.39 1029.95 567.6 1011.56 580.58 989.07 590.2 964.23 595.83 938.62 599.97 912.77 600.29 887.69 597.39 863.96 595.08 841.55 592.04 820.54 590.2 801.09 593.42 782.47 601.07 764.32 614.28 747.04 634.22 729.47 658.64 711.29 685.14 693.36 711.63 674.37 733.52 654.28 746.87 634.19 750.95 613.95 743.31 594 725.85 574.29 702.36 555.31 674.73 537.78 646.55 521.11 621.06 506.65 599.39 495.14 582.42 483.36 554.95 491.51 520.31 482.57 498.77 469.95 483.23 454.05 465.29 436.24 445.2 416.69 425.11 399.96 403.82 387.84 381.48 379.37 358.89 377.73 334.82 382.87 309.35 392.86 283.37 408.67 255.93 428.86 227.68 451.66 199.87 476.73 172.66 502.68 147.75 528.74 126.18 554.43 109.6 579.14 99.82 602.95 95.87 625.75 99.52 647.55 110.29 668.62 123.74 689.2 139.94 709.43 155.67 729.43 165.39 749.51 168.95 769.6 164.87 789.69 151.52 808.84 133.7 826.73 114.96 852.36 89.72 892.25 84.71 904.55 107.59 910.8 130.35 913.95 157.21 914.22 185.85 914.6 215.08 913.35 243.6 911.47 270.43 912.19 295.75 914.4 319.22 919.13 341.05 928.72 361.66 941.79 381.52 958.01 401.09 977.88 420.28 998.68 439.87 1018.23 459.96Q1018.24 459.97 1018.24 459.97" opacity="0.12"></path><path d="M969.72 434.33C997.47 467.81 1005.19 492.59 992.55 507.5 967.02 521.59 928.66 526.58 885.85 526.78 842.6 535.79 800.8 553.03 762.53 583.49 725.99 627.55 690.78 672.02 657.3 698.36 623.82 699.62 595.23 670.04 573.75 624.47 553.99 578.54 543.54 539.71 542.9 511.47 541.83 495.05 544.67 481.38 545.67 464.3 533.76 449.09 512.47 425.32 484.72 391.84 452.2 358.36 432.33 318.33 430.18 275.51 440.76 234.58 468.27 195.99 505.41 168.52 546.91 152.89 590.35 156.2 631.29 177.58 671.63 198.61 709.37 214.62 742.85 213.36 776.33 187.02 802.38 156.12 820.07 136.6 837.16 130.68 845.97 148.96 848.35 183.83 855.1 227.52 863.11 274.79 877.06 318.72 903.75 361.83 937.2 400.85 969.72 434.33Q969.72 434.33 969.72 434.33" opacity="0.38"></path><path d="M921.24 377.73C944.25 404.52 953.87 424.01 949.65 437.25 936.85 452.03 912.96 464.11 882.97 477.2 850.11 497.91 815.58 525.19 782.73 558.55 749.97 596.37 719.31 630.36 692.52 649.87 665.74 653.09 645.36 634.67 631.7 602.26 618.14 564.68 610.86 526.09 608.61 491.87 603.5 463.4 598.98 438.85 592.14 416.04 576.73 395.61 556.25 372.61 533.24 345.83 507.14 319.04 489.38 291 482.96 265.01 483.59 241.4 496.66 224.15 518.64 217.51 545.15 216.62 576.13 226.8 607.49 244.75 639.56 257.53 670.21 265.09 697 261.87 723.78 242.36 744.17 219.22 758.52 201.04 773.58 187.31 784.41 188.44 793 202.84 806.13 224.85 821.46 254.58 840.47 286.23 866.52 319.4 895.14 350.94 921.24 377.73Q921.24 377.73 921.24 377.73" opacity="0.68"></path><path d="M872.74 341.2C890.55 361.29 900.06 379.64 901.04 396.66 897.49 415.03 886.13 434.45 869.37 455.81 850.03 480.54 827.67 508.21 804.87 536.58 781.53 564.64 758.9 588.02 738.82 601.37 718.73 605.45 703.07 596.02 691.6 576.6 679.59 551.86 670.6 522.8 663.61 493.56 654.04 465 644.09 438.11 632.91 413.91 617.2 390.68 599.55 368.78 581.74 348.69 558.12 299.34 628.91 313.81 659.54 310.37 679.63 297.02 696.82 281.78 711.32 268.44 733.73 251.62 780.22 260.98 808.54 283.38 830.78 301.18 853.18 321.1 872.73 341.19Q872.74 341.2 872.74 341.2" opacity="0.27"></path><path d="M824.24 357.72C847.25 384.51 850.9 419.15 838.7 456.55 821.63 495.47 795.21 533.36 768.43 552.87 741.64 556.09 719.55 533.22 701.52 499.64 678.61 462.11 653.25 424.63 630.24 397.85 598.5 365.55 615.81 361.51 652.93 358.87 679.72 339.36 707.56 323.19 734.5 319.36 765.14 317.07 798.14 330.93 824.24 357.72Q824.24 357.72 824.24 357.72" opacity="0.22"></path></g></svg>